<?xml version="1.0" encoding="utf-8"?>
<!-- Generator: Adobe Illustrator 27.2.0, SVG Export Plug-In . SVG Version: 6.00 Build 0)  -->
<svg version="1.1" id="_x32_" xmlns="http://www.w3.org/2000/svg" xmlns:xlink="http://www.w3.org/1999/xlink" x="0px" y="0px"
	 viewBox="0 0 29.3 40" style="enable-background:new 0 0 29.3 40;" xml:space="preserve">
<style type="text/css">
	.st0{fill:#4B4B4B;}
</style>
<g>
	<path class="st0" d="M14.7,9.4L6,1C5,0,3.5-0.3,2.2,0.3C0.8,0.8,0,2.1,0,3.5v21.4c0,1.4,0.6,2.8,1.6,3.8L12.2,39
		c1.4,1.3,3.5,1.3,4.9,0l10.6-10.2c1-1,1.6-2.4,1.6-3.8V3.5c0-1.4-0.8-2.7-2.2-3.3C25.9-0.3,24.4,0,23.3,1L14.7,9.4z M24.3,24.3
		c0,0.5-0.2,0.9-0.5,1.3l-9.1,8.8V16.3l1.7-1.7l6.4-6.2c0.3-0.2,0.6-0.3,1-0.2c0.3,0.1,0.5,0.5,0.5,0.8V24.3z"/>
</g>
</svg>
