<?xml version="1.0" encoding="utf-8"?>
<!-- Generator: Adobe Illustrator 27.2.0, SVG Export Plug-In . SVG Version: 6.00 Build 0)  -->
<svg version="1.1" id="レイヤー_1" xmlns="http://www.w3.org/2000/svg" xmlns:xlink="http://www.w3.org/1999/xlink" x="0px"
	 y="0px" viewBox="0 0 100 129.9" style="enable-background:new 0 0 100 129.9;" xml:space="preserve">
<style type="text/css">
	.st0{fill:#727171;}
	.st1{fill:#FFFFFF;}
	.st2{font-family:'Impact';}
	.st3{font-size:29.5746px;}
</style>
<path class="st0" d="M36.9,7.7L2.8,66.9c-5.9,10.3,1.5,23.2,13.4,23.2h68.3c12,0,19.4-13,13.4-23.2L63.8,7.7
	C57.7-2.6,42.9-2.6,36.9,7.7z"/>
<g>
	<path class="st1" d="M49.5,85.4c-3.9,0-7-3.2-7-7.3s3.2-7.3,7-7.3c3.9,0,7,3.2,7,7.3S53.5,85.4,49.5,85.4z M45,67l-1.4-48.9h12
		L54.2,67H45z"/>
</g>
<text transform="matrix(1.303 0 0 1 0 120.1438)" class="st0 st2 st3">ERROR</text>
</svg>
