<?xml version="1.0" encoding="utf-8"?>
<!-- Generator: Adobe Illustrator 27.2.0, SVG Export Plug-In . SVG Version: 6.00 Build 0)  -->
<svg version="1.1" id="レイヤー_1" xmlns="http://www.w3.org/2000/svg" xmlns:xlink="http://www.w3.org/1999/xlink" x="0px"
	 y="0px" viewBox="0 0 84.7 99.5" style="enable-background:new 0 0 84.7 99.5;" xml:space="preserve">
<style type="text/css">
	.st0{fill:#727171;}
	.st1{fill:#FFFFFF;}
	.st2{font-family:'Impact';}
	.st3{font-size:21px;}
</style>
<path class="st0" d="M32.8,12.6l-24.2,42c-4.2,7.3,1.1,16.5,9.5,16.5h48.5c8.5,0,13.8-9.2,9.5-16.5l-24.2-42
	C47.6,5.3,37.1,5.3,32.8,12.6z"/>
<g>
	<path class="st1" d="M41.8,67.8c-2.8,0-5-2.3-5-5.2c0-2.9,2.3-5.2,5-5.2c2.8,0,5,2.3,5,5.2C46.8,65.5,44.6,67.8,41.8,67.8z
		 M38.6,54.7L37.6,20h8.5l-1,34.7H38.6z"/>
</g>
<text transform="matrix(1.303 0 0 1 6.619 92.4354)" class="st0 st2 st3">ERROR</text>
</svg>
