<?xml version="1.0" encoding="utf-8"?>
<!-- Generator: Adobe Illustrator 27.2.0, SVG Export Plug-In . SVG Version: 6.00 Build 0)  -->
<svg version="1.1" id="_x32_" xmlns="http://www.w3.org/2000/svg" xmlns:xlink="http://www.w3.org/1999/xlink" x="0px" y="0px"
	 viewBox="0 0 512 512" style="enable-background:new 0 0 512 512;" xml:space="preserve">
<style type="text/css">
	.st0{fill:#4B4B4B;}
	.st1{fill:#FFFFFF;}
</style>
<g>
	<path class="st0" d="M512,331.1c0-11.1-3.8-21.5-10.2-29.6c-2.5-3.2-5.4-5.9-8.6-8.4c5-7.6,8-16.7,8-26.5
		c0-26.9-21.8-48.6-48.6-48.6h-35.5h0h-0.5h-2.1c-1.5,0-2.1,0-2.1,0c-0.4,0-0.8,0-1.3,0h-25.9c-6.7-0.3-13.4-1-18.8-2.5
		c-5.5-1.4-9.2-3.5-10.8-5.3c-2.8-3.1-3.3-5.1-3.4-8.4c0-2.8,0.8-6.6,2.7-10.9c2.7-6.5,7.5-14,12.2-21.2c2.4-3.6,4.8-7.2,6.9-10.8
		s4.1-7.1,5.6-11.1c4.5-12.6,14.4-35.8,14.4-64c0-11.9-1.8-24.7-6.4-37.8c-4-11.3-10.1-20.3-17.8-26.6c-7.7-6.3-17-9.6-26.3-9.6
		c-11,0-21.7,4.6-29.9,12.7c-8.2,8.1-13.9,19.5-16.2,33.1c-0.7,4.5-3,12.5-6.6,21.9c-5.4,14.2-13.9,32-24.7,49.4
		c-10.8,17.4-24,34.4-38.5,47.2c-18.4,16.2-35.8,30-50.7,42c-14.9,12.1-27.2,22.3-35.8,32.8c-1.8,2.3-5,4.8-9.1,7
		c-6,3.3-13.6,5.7-19.6,7.1c-3,0.7-5.5,1.2-7.3,1.5c-0.5,0.1-0.7,0.1-1.1,0.2v-5.2H36.5C16.3,259.6,0,275.9,0,296V459
		c0,20.1,16.3,36.5,36.5,36.5H80c13.4,0,24.3-10.9,24.3-24.3v-1.2c0,0,9.6,0,38.9,0c5.4,0,16.1,1.6,28.8,4.4
		c19.2,4.1,43.3,10.5,66.9,16c23.6,5.5,46.3,10.2,64.3,10.9c19,0.7,33.1,1,44.2,1c23.7,0,34.5-1.5,50.7-3.3l0.4-0.1l22.8-3.3l0.2,0
		c23.1-3.8,40.8-23.7,40.8-47.9c0-3.1-0.4-6.2-1-9.1c6.2-2.7,11.9-6.5,16.4-11.4c8-8.6,13-20.2,12.9-32.9c0-7.3-1.7-14.2-4.6-20.4
		C501.3,365.8,512,349.8,512,331.1z"/>
	<circle class="st1" cx="51.3" cy="439.8" r="16.8"/>
	<path class="st1" d="M464.7,354.6c-5.1,0.3-9.5,3.6-11.1,8.4c-1.6,4.8-0.2,10.1,3.6,13.4c5.2,4.5,8.3,10.7,8.3,17.8
		c0,6.2-2.4,11.7-6.3,15.9c-3.9,4.2-9.3,7-15.4,7.5c-4.2,0.4-8,2.9-9.9,6.6c-2,3.7-1.9,8.2,0.1,11.9c2,3.6,3.2,7.4,3.2,11.5
		c0,11.8-8.6,21.4-19.8,23.3l-22.3,3.2c-16.6,1.8-25.1,3.1-47.8,3.1c-10.7,0-24.4-0.3-43.3-1c-9.5-0.3-22.6-2.4-37-5.3
		c-21.7-4.4-46.4-10.8-68.5-16.2c-11.1-2.7-21.6-5.1-30.9-6.9c-9.3-1.8-17.3-2.9-24.3-3c-11.9,0-20.4,0-26.4,0V287.7
		c2.9-0.7,6.1-1.5,9.6-2.6c5.6-1.7,11.7-4,17.7-7.2c6-3.2,11.9-7.3,16.7-13.2c5.9-7.3,17.4-17.3,32.1-29.1
		c14.7-11.9,32.5-25.9,51.5-42.7c22.7-20.1,40.7-46.8,54-71.6c6.6-12.4,12-24.3,16-34.8c4-10.6,6.7-19.5,7.9-26.7
		c1.5-9.2,5.1-15.5,9.1-19.5c4-3.9,8.3-5.5,12.4-5.5c3.5,0,6.9,1.1,10.5,4c3.6,2.9,7.2,7.8,10,15.5c3.6,10.3,5,20.2,5,29.6
		c0,22.5-8,42-12.9,55.4c-0.7,1.9-2.7,5.6-5.4,9.8c-4.1,6.5-9.7,14.3-14.5,23c-4.7,8.7-9,18.4-9.1,29.7c-0.1,8.7,3.2,18.2,10.2,25.5
		c6.5,6.8,14.6,10.2,22.7,12.4c8.1,2.1,16.5,2.9,24.3,3.3l0.5,0h26.1c0.5,0,0.9,0,1.3,0c0,0,1,0,2.1,0c0.1,0,0.2,0,0.3,0
		c0.7,0,1.3,0,1.8,0c0.2,0,0.5,0,0.5,0h0h35.5c13.1,0,23.7,10.6,23.7,23.7c0,8.1-4.1,15.2-10.3,19.5c-4,2.8-6,7.5-5.2,12.3
		c0.8,4.8,4.3,8.6,9,10c5,1.4,9.4,4.4,12.5,8.4c3.1,4,4.9,8.9,4.9,14.3C487.1,343.7,477.2,353.9,464.7,354.6z"/>
</g>
</svg>
