<?xml version="1.0" encoding="utf-8"?>
<!-- Generator: Adobe Illustrator 27.2.0, SVG Export Plug-In . SVG Version: 6.00 Build 0)  -->
<svg version="1.1" id="_x32_" xmlns="http://www.w3.org/2000/svg" xmlns:xlink="http://www.w3.org/1999/xlink" x="0px" y="0px"
	 viewBox="0 0 20.8 20" style="enable-background:new 0 0 20.8 20;" xml:space="preserve">
<style type="text/css">
	.st0{fill:#4B4B4B;}
	.st1{fill:#FFFFFF;}
</style>
<g>
	<path class="st0" d="M20.8,13c0-0.5-0.2-0.9-0.4-1.2c-0.1-0.1-0.2-0.2-0.3-0.3c0.2-0.3,0.3-0.7,0.3-1.1c0-1.1-0.9-2-2-2h-1.4l0,0h0
		h-0.1c-0.1,0-0.1,0-0.1,0c0,0,0,0-0.1,0h-1.1c-0.3,0-0.5,0-0.8-0.1c-0.2-0.1-0.4-0.1-0.4-0.2c-0.1-0.1-0.1-0.2-0.1-0.3
		c0-0.1,0-0.3,0.1-0.4c0.1-0.3,0.3-0.6,0.5-0.9c0.1-0.1,0.2-0.3,0.3-0.4c0.1-0.1,0.2-0.3,0.2-0.5C15.6,5.1,16,4.2,16,3
		c0-0.5-0.1-1-0.3-1.5C15.6,1,15.3,0.6,15,0.4C14.7,0.1,14.3,0,13.9,0c-0.4,0-0.9,0.2-1.2,0.5c-0.3,0.3-0.6,0.8-0.7,1.3
		C12,2,12,2.4,11.8,2.7c-0.2,0.6-0.6,1.3-1,2c-0.4,0.7-1,1.4-1.6,1.9C8.5,7.3,7.8,7.9,7.2,8.4C6.6,8.9,6.1,9.3,5.7,9.7
		C5.7,9.8,5.5,9.9,5.4,10c-0.2,0.1-0.6,0.2-0.8,0.3c-0.1,0-0.2,0-0.3,0.1c0,0,0,0,0,0v-0.2H1.5c-0.8,0-1.5,0.7-1.5,1.5v6.6
		c0,0.8,0.7,1.5,1.5,1.5h1.8c0.5,0,1-0.4,1-1v0c0,0,0.4,0,1.6,0c0.2,0,0.7,0.1,1.2,0.2c0.8,0.2,1.8,0.4,2.7,0.6
		c1,0.2,1.9,0.4,2.6,0.4c0.8,0,1.3,0,1.8,0c1,0,1.4-0.1,2.1-0.1l0,0l0.9-0.1h0c0.9-0.2,1.7-1,1.7-1.9c0-0.1,0-0.3,0-0.4
		c0.3-0.1,0.5-0.3,0.7-0.5c0.3-0.3,0.5-0.8,0.5-1.3c0-0.3-0.1-0.6-0.2-0.8C20.4,14.5,20.8,13.8,20.8,13z"/>
	<circle class="st1" cx="2.1" cy="17.5" r="0.7"/>
	<path class="st1" d="M18.9,14c-0.2,0-0.4,0.1-0.5,0.3c-0.1,0.2,0,0.4,0.1,0.5c0.2,0.2,0.3,0.4,0.3,0.7c0,0.3-0.1,0.5-0.3,0.6
		c-0.2,0.2-0.4,0.3-0.6,0.3c-0.2,0-0.3,0.1-0.4,0.3c-0.1,0.2-0.1,0.3,0,0.5c0.1,0.1,0.1,0.3,0.1,0.5c0,0.5-0.3,0.9-0.8,0.9L16,18.9
		c-0.7,0.1-1,0.1-1.9,0.1c-0.4,0-1,0-1.8,0c-0.4,0-0.9-0.1-1.5-0.2C10,18.5,9,18.3,8.1,18.1c-0.5-0.1-0.9-0.2-1.3-0.3
		c-0.4-0.1-0.7-0.1-1-0.1c-0.5,0-0.8,0-1.1,0v-6.4c0.1,0,0.2-0.1,0.4-0.1c0.2-0.1,0.5-0.2,0.7-0.3c0.2-0.1,0.5-0.3,0.7-0.5
		c0.2-0.3,0.7-0.7,1.3-1.2c0.6-0.5,1.3-1.1,2.1-1.7c0.9-0.8,1.7-1.9,2.2-2.9c0.3-0.5,0.5-1,0.6-1.4C12.9,2.7,13,2.3,13.1,2
		c0.1-0.4,0.2-0.6,0.4-0.8C13.6,1.1,13.8,1,14,1c0.1,0,0.3,0,0.4,0.2c0.1,0.1,0.3,0.3,0.4,0.6C14.9,2.2,15,2.6,15,3
		c0,0.9-0.3,1.7-0.5,2.2c0,0.1-0.1,0.2-0.2,0.4c-0.2,0.3-0.4,0.6-0.6,0.9c-0.2,0.4-0.4,0.7-0.4,1.2c0,0.4,0.1,0.7,0.4,1
		c0.3,0.3,0.6,0.4,0.9,0.5c0.3,0.1,0.7,0.1,1,0.1h0h1.1c0,0,0,0,0.1,0c0,0,0,0,0.1,0c0,0,0,0,0,0c0,0,0.1,0,0.1,0c0,0,0,0,0,0l0,0
		h1.4c0.5,0,1,0.4,1,1c0,0.3-0.2,0.6-0.4,0.8c-0.2,0.1-0.2,0.3-0.2,0.5c0,0.2,0.2,0.3,0.4,0.4c0.2,0.1,0.4,0.2,0.5,0.3
		c0.1,0.2,0.2,0.4,0.2,0.6C19.8,13.6,19.4,14,18.9,14z"/>
</g>
</svg>
