<?xml version="1.0" encoding="utf-8"?>
<!-- Generator: Adobe Illustrator 27.2.0, SVG Export Plug-In . SVG Version: 6.00 Build 0)  -->
<svg version="1.1" id="_x32_" xmlns="http://www.w3.org/2000/svg" xmlns:xlink="http://www.w3.org/1999/xlink" x="0px" y="0px"
	 viewBox="0 0 34.1 40" style="enable-background:new 0 0 34.1 40;" xml:space="preserve">
<style type="text/css">
	.st0{fill:#4B4B4B;}
</style>
<g>
	<path class="st0" d="M9.2,0v13.6h2.6v-11h18.4l-5.8,4c-0.7,0.4-1.1,1.2-1.1,2v22.4H11.8V22H9.2v11.5h14.1v5.5
		c0,0.3,0.2,0.7,0.5,0.8c0.3,0.2,0.7,0.1,1-0.1l9.3-6.3V0H9.2z"/>
	<path class="st0" d="M14.9,22.7c0,0.1,0.1,0.3,0.2,0.3c0.1,0.1,0.3,0,0.4-0.1l6.1-5.2l-6.1-5.2c-0.1-0.1-0.3-0.1-0.4-0.1
		c-0.1,0.1-0.2,0.2-0.2,0.3v2.6H0v4.5h14.9L14.9,22.7L14.9,22.7z"/>
</g>
</svg>
