<?xml version="1.0" encoding="utf-8"?>
<!-- Generator: Adobe Illustrator 27.2.0, SVG Export Plug-In . SVG Version: 6.00 Build 0)  -->
<svg version="1.1" id="_x32_" xmlns="http://www.w3.org/2000/svg" xmlns:xlink="http://www.w3.org/1999/xlink" x="0px" y="0px"
	 viewBox="0 0 34.1 40" style="enable-background:new 0 0 34.1 40;" xml:space="preserve">
<style type="text/css">
	.st0{fill:#4B4B4B;}
</style>
<g>
	<path class="st0" d="M0,0v33.5l9.3,6.3c0.3,0.2,0.6,0.2,1,0c0.3-0.2,0.5-0.5,0.5-0.8v-5.5h14.1V22h-2.6v8.9H10.8V8.6
		c0-0.8-0.4-1.5-1.1-2l-5.9-4h18.4v11h2.6V0H0z"/>
	<path class="st0" d="M27.4,12.9v2.6H12.5V20h14.9v2.6c0,0.1,0.1,0.3,0.2,0.3c0.1,0.1,0.3,0,0.4-0.1l6.1-5.2L28,12.7
		c-0.1-0.1-0.3-0.1-0.4-0.1C27.5,12.7,27.4,12.8,27.4,12.9L27.4,12.9z"/>
</g>
</svg>
