<?xml version="1.0" encoding="utf-8"?>
<!-- Generator: Adobe Illustrator 27.2.0, SVG Export Plug-In . SVG Version: 6.00 Build 0)  -->
<svg version="1.1" id="_x32_" xmlns="http://www.w3.org/2000/svg" xmlns:xlink="http://www.w3.org/1999/xlink" x="0px" y="0px"
	 viewBox="0 0 512 512" style="enable-background:new 0 0 512 512;" xml:space="preserve">
<style type="text/css">
	.st0{fill:#4B4B4B;}
</style>
<g>
	<path class="st0" d="M37.8,0v429.2L157.1,510c3.6,2.5,8.3,2.7,12.2,0.6c3.9-2,6.3-6.1,6.3-10.5v-70.9h180.6V282.1h-33.4v113.7
		H175.6l0-286.2c0-10.2-5.1-19.8-13.5-25.5L87.2,33.4h235.6v140.5h33.4V0L37.8,0z"/>
	<path class="st0" d="M388.4,165.6v33.4H197.5l0,58.1h190.9v33.4c0,1.8,1.1,3.5,2.8,4.3c1.7,0.8,3.6,0.5,5-0.7l78-66l-78-66
		c-1.4-1.2-3.4-1.5-5-0.7C389.4,162,388.4,163.7,388.4,165.6L388.4,165.6z"/>
</g>
</svg>
