<?xml version="1.0" encoding="utf-8"?>
<!-- Generator: Adobe Illustrator 27.2.0, SVG Export Plug-In . SVG Version: 6.00 Build 0)  -->
<svg version="1.1" id="_x32_" xmlns="http://www.w3.org/2000/svg" xmlns:xlink="http://www.w3.org/1999/xlink" x="0px" y="0px"
	 viewBox="0 0 39.8 60" style="enable-background:new 0 0 39.8 60;" xml:space="preserve">
<style type="text/css">
	.st0{fill:#4B4B4B;}
</style>
<g>
	<path class="st0" d="M28.9,25c-2.4,2.1-5.6,3.4-9,3.4s-6.6-1.3-9-3.4C4.4,27.5,0,32.8,0,40.5V52c0,0,1.7,2.3,5.4,4.4v-8.1h3.4V58
		c2.9,1.1,6.6,2,11.1,2s8.2-0.9,11.1-2v-9.8h3.4v8.1c3.7-2.1,5.4-4.4,5.4-4.4V40.5C39.8,32.8,35.3,27.5,28.9,25z"/>
	<path class="st0" d="M19.9,25.1c5.8,0,10.5-4.7,10.5-10.5v-4.1C30.3,4.7,25.7,0,19.9,0S9.4,4.7,9.4,10.5v4.1
		C9.4,20.4,14.1,25.1,19.9,25.1z"/>
</g>
</svg>
