<?xml version="1.0" encoding="utf-8"?>
<!-- Generator: Adobe Illustrator 27.2.0, SVG Export Plug-In . SVG Version: 6.00 Build 0)  -->
<svg version="1.1" id="_x32_" xmlns="http://www.w3.org/2000/svg" xmlns:xlink="http://www.w3.org/1999/xlink" x="0px" y="0px"
	 viewBox="0 0 50.9 40" style="enable-background:new 0 0 50.9 40;" xml:space="preserve">
<style type="text/css">
	.st0{fill:#4B4B4B;}
</style>
<g>
	<path class="st0" d="M25.5,16c4.4,0,8-3.6,8-8c0-4.4-3.6-8-8-8s-8,3.6-8,8C17.5,12.4,21.1,16,25.5,16z"/>
	<path class="st0" d="M43.1,19.5c3.3,0,6-2.7,6-6c0-3.3-2.7-6-6-6c-3.3,0-6,2.7-6,6C37.1,16.9,39.8,19.5,43.1,19.5z"/>
	<path class="st0" d="M43.1,20.9c-2.3,0-4,0.7-5.3,1.7c0.3,0.6,0.5,1.2,0.6,1.7l0.1,0.3v13h5.6c3.8,0,6.9-3.1,6.9-6.9v-4.5
		C50.5,24.2,48,20.9,43.1,20.9z"/>
	<path class="st0" d="M7.9,7.6c-3.3,0-6,2.7-6,6c0,3.3,2.7,6,6,6s6-2.7,6-6C13.8,10.3,11.2,7.6,7.9,7.6z"/>
	<path class="st0" d="M0,26.1v4.5c0,3.8,3.1,6.9,6.9,6.9h5.6v-13l0.1-0.3c0.1-0.5,0.3-1.1,0.6-1.7c-1.3-1-3-1.7-5.3-1.7
		C2.9,20.9,0.4,24.2,0,26.1z"/>
	<path class="st0" d="M25.5,17.8c-6.6,0-9.9,4.4-10.5,7v11.5c0,2.1,1.7,3.7,3.7,3.7h13.4c2.1,0,3.7-1.7,3.7-3.7V24.8
		C35.4,22.2,32.1,17.8,25.5,17.8z"/>
</g>
</svg>
